<?xml version="1.0" encoding="UTF-8"?>
<svg width="250px" height="49px" viewBox="0 0 291 49" version="1.1" xmlns="http://www.w3.org/2000/svg" xmlns:xlink="http://www.w3.org/1999/xlink">
    <title>Logo</title>
    <defs>
        <filter id="filter-1">
            <feColorMatrix in="SourceGraphic" type="matrix" values="0 0 0 0 0.960784 0 0 0 0 0.960784 0 0 0 0 0.960784 0 0 0 1.000000 0"></feColorMatrix>
        </filter>
    </defs>
    <g id="ðŸ¼-digitalnatur" stroke="none" stroke-width="1" fill="none" fill-rule="evenodd">
        <g id="Logo" transform="translate(-39.000000, -3.000000)" filter="url(#filter-1)">
            <g transform="translate(39.000000, 3.000000)">
                <text id="NATUR" font-family="Muli-ExtraLight, Muli" font-size="36" font-weight="300" fill="#FFFFFF">
                    <tspan x="166" y="40">NATUR</tspan>
                </text>
                <text id="DIGITAL" font-family="Muli-ExtraLight, Muli" font-size="36" font-weight="300" fill="#FFFFFF">
                    <tspan x="0" y="40">DIGITAL</tspan>
                </text>
                <g id="microchip" transform="translate(128.000000, 0.000000)" fill="#F5F5F5" fill-rule="nonzero">
                    <polygon id="Path" points="12.1333333 25.6666667 10.7333333 26.6 14.4666667 29.8666667 14.4666667 40.6 15.8666667 40.6 15.8666667 28.9333333"></polygon>
                    <polygon id="Path" points="15.8666667 22.8666667 15.8666667 17.7333333 14.4666667 17.7333333 14.4666667 23.8 18.6666667 27.5333333 18.6666667 40.6 20.0666667 40.6 20.0666667 26.6"></polygon>
                    <polygon id="Path" points="26.1333333 12.1333333 26.1333333 16.8 22.4 20.0666667 22.4 40.6 23.8 40.6 23.8 21 27.5333333 17.7333333 27.5333333 12.1333333"></polygon>
                    <polygon id="Path" points="30.3333333 19.1333333 26.6 22.4 26.6 40.6 28 40.6 28 23.3333333 31.7333333 20.0666667"></polygon>
                    <path d="M9.56666667,21.4666667 C7.89133333,21.4666667 6.53333333,22.8246667 6.53333333,24.5 C6.53333333,26.1753333 7.89133333,27.5333333 9.56666667,27.5333333 C11.242,27.5333333 12.6,26.1753333 12.6,24.5 C12.6,22.8246667 11.242,21.4666667 9.56666667,21.4666667 Z M9.56666667,26.1333333 C8.6646,26.1333333 7.93333333,25.4020667 7.93333333,24.5 C7.93333333,23.5979333 8.6646,22.8666667 9.56666667,22.8666667 C10.4687333,22.8666667 11.2,23.5979333 11.2,24.5 C11.2,25.4020667 10.4687333,26.1333333 9.56666667,26.1333333 Z" id="Shape"></path>
                    <path d="M15.1666667,12.1333333 C13.4913333,12.1333333 12.1333333,13.4913333 12.1333333,15.1666667 C12.1333333,16.842 13.4913333,18.2 15.1666667,18.2 C16.842,18.2 18.2,16.842 18.2,15.1666667 C18.2,13.4913333 16.842,12.1333333 15.1666667,12.1333333 Z M15.1666667,16.8 C14.2646,16.8 13.5333333,16.0687333 13.5333333,15.1666667 C13.5333333,14.2646 14.2646,13.5333333 15.1666667,13.5333333 C16.0687333,13.5333333 16.8,14.2646 16.8,15.1666667 C16.8,16.0687333 16.0687333,16.8 15.1666667,16.8 Z" id="Shape"></path>
                    <path d="M26.8333333,6.06666667 C25.158,6.06666667 23.8,7.42466667 23.8,9.1 C23.8,10.7753333 25.158,12.1333333 26.8333333,12.1333333 C28.5086667,12.1333333 29.8666667,10.7753333 29.8666667,9.1 C29.8666667,7.42466667 28.5086667,6.06666667 26.8333333,6.06666667 Z M26.8333333,10.7333333 C25.9312667,10.7333333 25.2,10.0020667 25.2,9.1 C25.2,8.19793333 25.9312667,7.46666667 26.8333333,7.46666667 C27.7354,7.46666667 28.4666667,8.19793333 28.4666667,9.1 C28.4666667,10.0020667 27.7354,10.7333333 26.8333333,10.7333333 Z" id="Shape"></path>
                    <path d="M32.4333333,14.9333333 C30.758,14.9333333 29.4,16.2913333 29.4,17.9666667 C29.4,19.642 30.758,21 32.4333333,21 C34.1086667,21 35.4666667,19.642 35.4666667,17.9666667 C35.4666667,16.2913333 34.1086667,14.9333333 32.4333333,14.9333333 Z M32.4333333,19.6 C31.5312667,19.6 30.8,18.8687333 30.8,17.9666667 C30.8,17.0646 31.5312667,16.3333333 32.4333333,16.3333333 C33.3354,16.3333333 34.0666667,17.0646 34.0666667,17.9666667 C34.0666667,18.8687333 33.3354,19.6 32.4333333,19.6 Z" id="Shape"></path>
                </g>
            </g>
        </g>
    </g>
</svg>